# Blender 5.1.2
# www.blender.org
mtllib Closeted.mtl
o Cube
v -0.490978 -1.502648 0.758784
v -0.401709 -1.502648 0.758784
v -0.401709 -1.234842 0.758784
v -0.490978 -0.356102 0.758784
v -0.490978 -1.502648 0.580247
v -0.490978 -1.234842 0.580247
v -0.401709 -1.502648 0.580247
v -0.401709 -1.234842 0.580247
v -0.223172 -1.145573 0.669516
v -0.223172 -0.357628 -0.030948
v -0.490978 0.286302 0.008674
v -0.223172 -0.068768 0.669516
v 0.117165 -0.179657 0.669516
v -0.073577 0.558903 0.758784
v -0.490978 1.264684 0.758784
v 0.175748 0.210196 0.669516
v -0.223172 1.086146 0.669516
v -0.080551 1.264684 0.004882
v -0.490978 -1.234842 -0.580247
v -0.490978 -1.502648 -0.580247
v -0.401709 -1.502648 -0.580247
v -0.223172 -1.145573 -0.669516
v 0.119257 -0.391670 -0.669516
v -0.490978 -1.502648 -0.758785
v -0.401709 -1.502648 -0.758785
v -0.401709 -1.234842 -0.758785
v -0.490978 -0.141299 -0.758785
v 0.401709 -1.234842 -0.758785
v 0.089966 -0.095967 -0.758785
v -0.490978 1.264684 -0.758785
v -0.223172 1.086146 -0.669516
v 0.490978 1.264684 -0.758785
v 0.401709 -1.234842 0.758784
v 0.401709 -1.502648 0.758784
v 0.490978 -1.502648 0.758784
v 0.490978 -1.078621 0.758784
v 0.490978 -0.127351 0.758784
v 0.401709 -1.234842 0.580247
v -0.401709 -1.234842 -0.580247
v 0.284544 -1.145573 0.167379
v 0.334758 -1.145573 -0.066952
v 0.401709 -1.502648 0.580247
v 0.490978 -1.502648 0.580247
v 0.490978 -1.234842 0.580247
v 0.490978 -1.145573 0.669516
v 0.490978 1.264684 0.758784
v 0.490978 1.086146 0.669516
v 0.490978 -1.145573 -0.669516
v 0.401709 -1.234842 -0.580247
v 0.490978 -1.234842 -0.580247
v 0.401709 -1.502648 -0.580247
v 0.490978 -1.502648 -0.580247
v 0.490978 0.123717 -0.669516
v 0.401709 -1.502648 -0.758785
v 0.490978 -1.502648 -0.758785
v 0.490978 -0.356102 -0.758785
v 0.490978 1.086146 -0.669516
vn -0.0000 -0.0000 1.0000
vn -0.0000 -0.0000 -1.0000
vn -1.0000 -0.0000 -0.0000
vn 1.0000 -0.0000 -0.0000
vn -0.0000 -1.0000 -0.0000
vn -0.0000 1.0000 -0.0000
s 0
f 3//1 4//1 1//1
f 7//2 5//2 6//2
f 11//3 19//3 6//3
f 13//2 9//2 12//2
f 8//4 3//4 7//4
f 4//3 6//3 1//3
f 14//1 15//1 4//1
f 16//2 12//2 17//2
f 15//3 11//3 4//3
f 21//1 19//1 20//1
f 10//4 9//4 22//4
f 19//5 39//5 6//5
f 26//2 24//2 27//2
f 19//3 24//3 20//3
f 11//3 27//3 19//3
f 31//4 10//4 22//4
f 23//1 31//1 22//1
f 36//1 33//1 34//1
f 22//6 9//6 40//6
f 44//2 42//2 38//2
f 48//6 40//6 45//6
f 39//5 44//5 38//5
f 40//6 9//6 45//6
f 45//2 9//2 13//2
f 45//4 36//4 44//4
f 37//1 14//1 3//1
f 45//2 13//2 16//2
f 47//2 16//2 17//2
f 18//6 15//6 46//6
f 47//4 37//4 45//4
f 48//6 22//6 41//6
f 48//1 23//1 22//1
f 50//1 49//1 51//1
f 49//5 44//5 39//5
f 48//4 44//4 50//4
f 55//2 54//2 28//2
f 56//2 28//2 29//2
f 28//5 49//5 39//5
f 49//3 28//3 51//3
f 56//4 48//4 55//4
f 53//1 31//1 23//1
f 31//5 47//5 17//5
f 32//6 18//6 46//6
f 32//4 53//4 56//4
f 2//1 3//1 1//1
f 8//2 7//2 6//2
f 6//5 39//5 8//5
f 10//4 12//4 9//4
f 7//4 3//4 2//4
f 21//5 20//5 24//5 25//5
f 1//3 6//3 5//3
f 4//3 11//3 6//3
f 3//1 14//1 4//1
f 16//2 13//2 12//2
f 10//4 17//4 12//4
f 31//4 17//4 10//4
f 21//1 39//1 19//1
f 26//2 25//2 24//2
f 29//2 26//2 27//2
f 21//4 25//4 26//4 39//4
f 33//5 3//5 8//5 38//5
f 26//5 28//5 39//5
f 19//3 27//3 24//3
f 15//3 30//3 11//3
f 18//6 30//6 15//6
f 32//6 30//6 18//6
f 30//2 29//2 27//2
f 11//3 30//3 27//3
f 35//1 36//1 34//1
f 8//5 39//5 38//5
f 41//6 22//6 40//6
f 44//2 43//2 42//2
f 48//6 41//6 40//6
f 48//4 45//4 44//4
f 2//5 1//5 5//5 7//5
f 35//5 34//5 42//5 43//5
f 42//3 34//3 33//3 38//3
f 35//4 43//4 44//4 36//4
f 3//1 33//1 36//1 37//1
f 52//5 51//5 54//5 55//5
f 45//4 37//4 36//4
f 14//1 46//1 15//1
f 47//2 45//2 16//2
f 37//1 46//1 14//1
f 47//4 46//4 37//4
f 52//1 50//1 51//1
f 49//5 50//5 44//5
f 48//1 53//1 23//1
f 56//2 55//2 28//2
f 29//2 28//2 26//2
f 51//3 28//3 54//3
f 47//4 57//4 32//4 46//4
f 55//4 50//4 52//4
f 55//4 48//4 50//4
f 56//4 53//4 48//4
f 29//2 30//2 32//2 56//2
f 31//5 57//5 47//5
f 53//1 57//1 31//1
f 32//4 57//4 53//4
